<?xml version="1.0" standalone="no"?><!DOCTYPE svg PUBLIC "-//W3C//DTD SVG 1.1//EN" "http://www.w3.org/Graphics/SVG/1.1/DTD/svg11.dtd"><svg t="1763453678480" class="icon" viewBox="0 0 1024 1024" version="1.1" xmlns="http://www.w3.org/2000/svg" p-id="5433" xmlns:xlink="http://www.w3.org/1999/xlink" width="32" height="32"><path d="M246.645295 0c71.400727 0 130.885818 49.245091 147.083636 115.805091h366.685091A217.181091 217.181091 0 0 1 977.688204 333.079273a217.088 217.088 0 0 1-213.643637 216.715636H261.632931a147.176727 147.176727 0 0 0-144.663273 147.083636c0 80.989091 66.094545 147.083636 147.083637 147.083637h247.90109l-49.24509-58.926546a35.002182 35.002182 0 0 1 53.434181-44.962909l97.745455 115.246546a35.560727 35.560727 0 0 1-1.675636 46.824727l-97.28 101.469091a35.188364 35.188364 0 0 1-49.803637 1.117091 34.443636 34.443636 0 0 1-1.210182-49.245091l40.215273-41.984H260.422749a216.715636 216.715636 0 0 1-37.794909-429.707636l537.786182-4.189091c80.989091 0 147.083636-66.094545 147.083636-147.083637 0-80.430545-64.884364-145.873455-144.663273-147.083636H393.728931a150.807273 150.807273 0 0 1-147.083636 115.898182A150.807273 150.807273 0 0 1 95.372567 150.621091C95.372567 67.770182 163.23584 0 246.645295 0z m579.770181 698.647273c83.409455 0 151.272727 67.770182 151.272728 150.621091a151.272727 151.272727 0 0 1-302.545455 0 150.807273 150.807273 0 0 1 151.272727-150.621091z m0 68.980363a80.709818 80.709818 0 0 0-80.989091 80.989091c0 45.056 36.026182 81.082182 80.989091 81.082182 45.056 0 80.989091-36.026182 80.989091-80.989091a80.709818 80.709818 0 0 0-80.989091-80.989091zM246.086749 69.632a80.989091 80.989091 0 1 0 0.093091 161.978182 80.989091 80.989091 0 0 0-0.093091-161.978182z" p-id="5434" fill="#1296db"></path></svg>